REM DIRINDEX 1\2,1\3,1\4,1\5\6,1\5\7,1\8
REM DIRNAME folder01,folder02,folder03,folder04,folder05,folder06,folder07,folder08
TITLE ""
FILE "001 Åy001ÅzUnit1 (0001 budget_0012 generate).mp3" MP3
  TRACK 01 AUDIO
    TITLE "0:"
    INDEX 01 00:00:00
  TRACK 02 AUDIO
    TITLE "8:cjc115_0001"
    INDEX 01 00:00:07
  TRACK 03 AUDIO
    TITLE "0:"
    INDEX 01 00:01:40
  TRACK 04 AUDIO
    TITLE "2:cjc115_0002"
    INDEX 01 00:02:12
  TRACK 05 AUDIO
    TITLE "0:"
    INDEX 01 00:03:17
  TRACK 06 AUDIO
    TITLE "3:cjc115_0003"
    INDEX 01 00:03:25
  TRACK 07 AUDIO
    TITLE "0:"
    INDEX 01 00:04:25
  TRACK 08 AUDIO
    TITLE "4:cjc115_0004"
    INDEX 01 00:04:35
  TRACK 09 AUDIO
    TITLE "0:"
    INDEX 01 00:08:07
  TRACK 10 AUDIO
    TITLE "2:cjc115_0005"
    INDEX 01 00:09:14
  TRACK 11 AUDIO
    TITLE "0:"
    INDEX 01 00:10:29
  TRACK 12 AUDIO
    TITLE "3:cjc115_0006"
    INDEX 01 00:10:37
  TRACK 13 AUDIO
    TITLE "0:"
    INDEX 01 00:12:63
  TRACK 14 AUDIO
    TITLE "4:cjc115_0007"
    INDEX 01 00:12:69
  TRACK 15 AUDIO
    TITLE "0:"
    INDEX 01 00:16:61
  TRACK 16 AUDIO
    TITLE "2:cjc115_0008"
    INDEX 01 00:17:65
  TRACK 17 AUDIO
    TITLE "0:"
    INDEX 01 00:18:74
  TRACK 18 AUDIO
    TITLE "3:cjc115_0009"
    INDEX 01 00:19:05
  TRACK 19 AUDIO
    TITLE "0:"
    INDEX 01 00:20:18
  TRACK 20 AUDIO
    TITLE "4:cjc115_0010"
    INDEX 01 00:20:28
  TRACK 21 AUDIO
    TITLE "0:"
    INDEX 01 00:25:33
  TRACK 22 AUDIO
    TITLE "2:cjc115_0011"
    INDEX 01 00:26:44
  TRACK 23 AUDIO
    TITLE "0:"
    INDEX 01 00:27:55
  TRACK 24 AUDIO
    TITLE "3:cjc115_0012"
    INDEX 01 00:27:63
  TRACK 25 AUDIO
    TITLE "0:"
    INDEX 01 00:28:72
  TRACK 26 AUDIO
    TITLE "4:cjc115_0013"
    INDEX 01 00:29:05
  TRACK 27 AUDIO
    TITLE "0:"
    INDEX 01 00:34:02
  TRACK 28 AUDIO
    TITLE "2:cjc115_0014"
    INDEX 01 00:35:10
  TRACK 29 AUDIO
    TITLE "0:"
    INDEX 01 00:36:13
  TRACK 30 AUDIO
    TITLE "3:cjc115_0015"
    INDEX 01 00:36:23
  TRACK 31 AUDIO
    TITLE "0:"
    INDEX 01 00:37:30
  TRACK 32 AUDIO
    TITLE "4:cjc115_0016"
    INDEX 01 00:37:40
  TRACK 33 AUDIO
    TITLE "0:"
    INDEX 01 00:42:37
  TRACK 34 AUDIO
    TITLE "2:cjc115_0017"
    INDEX 01 00:43:52
  TRACK 35 AUDIO
    TITLE "0:"
    INDEX 01 00:44:56
  TRACK 36 AUDIO
    TITLE "3:cjc115_0018"
    INDEX 01 00:44:65
  TRACK 37 AUDIO
    TITLE "0:"
    INDEX 01 00:47:52
  TRACK 38 AUDIO
    TITLE "4:cjc115_0019"
    INDEX 01 00:47:60
  TRACK 39 AUDIO
    TITLE "0:"
    INDEX 01 00:50:46
  TRACK 40 AUDIO
    TITLE "2:cjc115_0020"
    INDEX 01 00:51:56
  TRACK 41 AUDIO
    TITLE "0:"
    INDEX 01 00:52:69
  TRACK 42 AUDIO
    TITLE "3:cjc115_0021"
    INDEX 01 00:53:02
  TRACK 43 AUDIO
    TITLE "0:"
    INDEX 01 00:54:19
  TRACK 44 AUDIO
    TITLE "4:cjc115_0022"
    INDEX 01 00:54:30
  TRACK 45 AUDIO
    TITLE "0:"
    INDEX 01 00:57:45
  TRACK 46 AUDIO
    TITLE "2:cjc115_0023"
    INDEX 01 00:58:50
  TRACK 47 AUDIO
    TITLE "0:"
    INDEX 01 00:59:67
  TRACK 48 AUDIO
    TITLE "3:cjc115_0024"
    INDEX 01 00:59:73
  TRACK 49 AUDIO
    TITLE "0:"
    INDEX 01 01:01:05
  TRACK 50 AUDIO
    TITLE "4:cjc115_0025"
    INDEX 01 01:01:13
  TRACK 51 AUDIO
    TITLE "0:"
    INDEX 01 01:06:26
  TRACK 52 AUDIO
    TITLE "2:cjc115_0026"
    INDEX 01 01:07:35
  TRACK 53 AUDIO
    TITLE "0:"
    INDEX 01 01:08:48
  TRACK 54 AUDIO
    TITLE "3:cjc115_0027"
    INDEX 01 01:08:56
  TRACK 55 AUDIO
    TITLE "0:"
    INDEX 01 01:10:14
  TRACK 56 AUDIO
    TITLE "4:cjc115_0028"
    INDEX 01 01:10:22
  TRACK 57 AUDIO
    TITLE "0:"
    INDEX 01 01:14:49
  TRACK 58 AUDIO
    TITLE "2:cjc115_0029"
    INDEX 01 01:15:54
  TRACK 59 AUDIO
    TITLE "0:"
    INDEX 01 01:16:56
  TRACK 60 AUDIO
    TITLE "3:cjc115_0030"
    INDEX 01 01:16:67
  TRACK 61 AUDIO
    TITLE "0:"
    INDEX 01 01:17:71
  TRACK 62 AUDIO
    TITLE "4:cjc115_0031"
    INDEX 01 01:18:06
  TRACK 63 AUDIO
    TITLE "0:"
    INDEX 01 01:22:39
  TRACK 64 AUDIO
    TITLE "2:cjc115_0032"
    INDEX 01 01:23:46
  TRACK 65 AUDIO
    TITLE "0:"
    INDEX 01 01:24:61
  TRACK 66 AUDIO
    TITLE "3:cjc115_0033"
    INDEX 01 01:24:71
  TRACK 67 AUDIO
    TITLE "0:"
    INDEX 01 01:26:38
  TRACK 68 AUDIO
    TITLE "4:cjc115_0034"
    INDEX 01 01:26:44
  TRACK 69 AUDIO
    TITLE "0:"
    INDEX 01 01:31:69
  TRACK 70 AUDIO
    TITLE "2:cjc115_0035"
    INDEX 01 01:33:01
  TRACK 71 AUDIO
    TITLE "0:"
    INDEX 01 01:34:18
  TRACK 72 AUDIO
    TITLE "3:cjc115_0036"
    INDEX 01 01:34:24
  TRACK 73 AUDIO
    TITLE "0:"
    INDEX 01 01:36:60
  TRACK 74 AUDIO
    TITLE "4:cjc115_0037"
    INDEX 01 01:36:70
  TRACK 75 AUDIO
    TITLE "0:"
    INDEX 01 01:40:42
